<svg xmlns="http://www.w3.org/2000/svg" width="85" height="32"><path fill="#63707e" d="M0 1.542h14.839v3.534H4.091v6.233h10.131v3.406H4.091v9.574H0V1.542zM17.509 0h3.897v24.289h-3.897V0zM25.224 8.867h3.896v15.422h-3.896V8.867zm-.552-5.236c0-.621.227-1.157.682-1.606.476-.471 1.071-.707 1.786-.707s1.31.225 1.786.675c.498.428.747.975.747 1.639s-.249 1.221-.747 1.671c-.476.428-1.072.643-1.786.643s-1.31-.225-1.786-.675c-.455-.471-.682-1.017-.682-1.639zM36.607 8.867v2.153h.097c.195-.3.444-.6.747-.9a4.75 4.75 0 0 1 1.169-.835c.455-.257.963-.46 1.526-.61a6.923 6.923 0 0 1 1.948-.257c1.104 0 2.121.214 3.052.643.931.407 1.732.975 2.403 1.703s1.191 1.585 1.559 2.57.552 2.046.552 3.181a9.287 9.287 0 0 1-.552 3.213 7.662 7.662 0 0 1-1.526 2.602c-.649.728-1.45 1.317-2.403 1.767-.931.428-1.991.643-3.182.643-1.104 0-2.121-.225-3.052-.675-.909-.45-1.613-1.06-2.111-1.831h-.065v9.767h-3.897V8.868h3.734zm9.092 7.647c0-.6-.097-1.189-.292-1.767-.173-.6-.444-1.135-.812-1.606s-.833-.846-1.396-1.124c-.563-.3-1.223-.45-1.981-.45-.714 0-1.353.15-1.916.45s-1.05.685-1.461 1.157a5.332 5.332 0 0 0-.909 1.606c-.195.6-.292 1.199-.292 1.799s.097 1.199.292 1.799c.216.578.519 1.103.909 1.574.411.471.898.857 1.461 1.157.563.278 1.201.418 1.916.418.758 0 1.418-.15 1.981-.45s1.028-.685 1.396-1.157.639-1.007.812-1.606c.195-.6.292-1.199.292-1.799zM56.181 8.867v2.153h.097c.195-.3.444-.6.747-.9a4.75 4.75 0 0 1 1.169-.835c.455-.257.963-.46 1.526-.61a6.923 6.923 0 0 1 1.948-.257c1.104 0 2.121.214 3.052.643.931.407 1.732.975 2.403 1.703s1.191 1.585 1.559 2.57.552 2.046.552 3.181a9.287 9.287 0 0 1-.552 3.213 7.662 7.662 0 0 1-1.526 2.602 7.423 7.423 0 0 1-2.403 1.767c-.931.428-1.991.643-3.182.643-1.104 0-2.121-.225-3.052-.675-.909-.45-1.613-1.06-2.111-1.831h-.065v9.767h-3.897V8.868h3.734zm9.092 7.647c0-.6-.097-1.189-.292-1.767-.173-.6-.444-1.135-.812-1.606s-.833-.846-1.396-1.124c-.563-.3-1.223-.45-1.981-.45-.714 0-1.353.15-1.916.45s-1.05.685-1.461 1.157a5.332 5.332 0 0 0-.909 1.606c-.195.6-.292 1.199-.292 1.799s.097 1.199.292 1.799c.216.578.519 1.103.909 1.574.411.471.898.857 1.461 1.157.563.278 1.201.418 1.916.418.758 0 1.418-.15 1.981-.45s1.028-.685 1.396-1.157.639-1.007.812-1.606c.195-.6.292-1.199.292-1.799zM81.697 22.329H81.6c-.39.685-1.017 1.253-1.883 1.703-.866.428-1.851.643-2.955.643a8.272 8.272 0 0 1-1.981-.257 6.017 6.017 0 0 1-1.883-.771 5.209 5.209 0 0 1-1.429-1.478c-.368-.621-.552-1.381-.552-2.281 0-1.157.325-2.078.974-2.763.671-.685 1.526-1.21 2.565-1.574s2.186-.6 3.442-.707a37.155 37.155 0 0 1 3.734-.193v-.386c0-.964-.357-1.671-1.072-2.121-.693-.471-1.526-.707-2.5-.707-.823 0-1.613.171-2.37.514s-1.385.76-1.883 1.253l-2.013-2.345a8.846 8.846 0 0 1 3.052-1.831 10.698 10.698 0 0 1 3.539-.61c1.385 0 2.522.193 3.409.578.909.386 1.624.889 2.143 1.51s.877 1.317 1.072 2.088c.216.771.325 1.542.325 2.313v9.382h-3.637v-1.96zm-.065-5.076h-.877c-.628 0-1.288.032-1.981.096a7.641 7.641 0 0 0-1.916.353c-.585.171-1.072.428-1.461.771-.39.321-.584.771-.584 1.349 0 .364.076.675.227.932.173.236.39.428.649.578s.552.257.877.321.649.096.974.096c1.342 0 2.36-.354 3.052-1.06s1.039-1.671 1.039-2.892v-.546z"/></svg>