<svg width="537.996" height="291.27" fill="none" xmlns="http://www.w3.org/2000/svg"><path d="m303 201.335 95.5-54 120.5 70-95.5 55.5z" fill="#fff" stroke="#fff"/><path opacity=".1" d="m531.74 255.715-62.07 35.555-15.89-9.192 61.68-35.379 6.72-4.882 3.24 2.262z" fill="url(#b)"/><path d="m524.15 238.752-.59-.292a2.723 2.723 0 0 0-2.82.483c-1.17 1.066-2.14 2.906-3.7 4.746-.68.872-1.75 1.456-2.24 1.841-.49.487-.97 1.261-.87 1.743v.579s.49.677 1.75.872c1.46.195 2.82-.292 3.41-.872 3.01-3.198 3.7-3.49 3.7-3.49v1.358l2.63-1.646v-3.393c-.01-.765-.49-1.544-1.27-1.929zm3.8 5.717-.29 1.743s-.29 3.296.2 7.945c0 0 .19 1.456 1.55 1.743 1.56.39 2.44-.579 2.53-1.261.2-.676.97-4.649 1.27-7.463v-2.327z" fill="#0f0446"/><path d="m532.34 242.141-.2-.194a2.124 2.124 0 0 0-2.24-.483l-.58.195c-.98.39-1.46 2.517-1.46 3.583-.1 1.646-.1 2.907.1 5.429.09 1.163.19 2.327.29 3.004.19.871.77 1.548 1.65 1.645 1.07.098 1.75-.389 1.95-1.937 0 0 .97-4.553 1.27-7.074.09-1.359.19-3.199-.78-4.168z" fill="#0f0446"/><path d="m532.81 239.235-3.99-1.451-.09 5.618c-.2.58.38 1.456 1.36 1.938 1.07.58 1.94.487 2.24-.097.09-.098.09-.292.09-.39zm-8.07-4.358-3.8-1.455v5.331c-.19.579.39 1.358 1.27 1.84.97.579 2.04.579 2.43 0 .1-.097.1-.292.1-.389z" fill="#724c3b"/><path d="m525.41 235.846.1-1.066c.1-.774-.58-1.84-1.65-2.517-1.37-.871-2.83-.969-3.41-.195-.2.195-.2.487-.1.775l-.1.968c0 .774.58 1.743 1.66 2.518 1.36.871 2.82.968 3.4.194.1-.097.1-.195.1-.389zm8.09 4.163c.1-.774-.58-1.84-1.65-2.517-1.37-.872-2.83-.969-3.41-.195-.1.195-.2.39-.2.677l-.09 1.066c-.1.774.58 1.84 1.65 2.517 1.36.872 2.83.969 3.41.195.1-.097.1-.292.2-.487z" fill="#5333ed"/><path d="M533.5 219.176c.19-4.552 1.36-14.342 1.36-16.085-.1-2.809-1.46-9.883-2.15-12.985-.19-1.066-.38-1.84-.68-2.614.78-1.066-.39-6.397-7.78-8.817-5.26-1.743-7.21.969-6.92 2.712 0 .292 0 .774.1.969-.68 2.424-1.17 9.206-.48 17.054.38 4.167 1.36 8.817 1.55 13.082.1 2.23-.38 4.07-.29 5.91.68 7.366 2.34 11.821 2.44 13.564-.49.677.19 1.84 1.36 2.615 1.16.774 2.52.871 2.92.194.09-.097.09-.194.09-.292v-.389c0-.872 1.17-3.004.87-5.716-.58-5.039-.68-11.047-.77-14.148-.1-4.649.11-5.53.06-6.958 0 0 .61 2.211 1.2 9.962v.097c0 .39-.1 3.394-.1 4.168.29 6.397 2.53 13.471 2.14 15.696-.19.677.39 1.743 1.46 2.425 1.17.774 2.53.871 2.92.194.1-.097.1-.292.1-.482.59-3.004 1.27-4.941 1.46-7.848.5-4.552-.96-9.494-.86-12.308z" fill="#150773"/><path opacity=".5" d="M525.03 234.098c0-.871 1.17-3.004.87-5.715-.58-5.039-.68-11.047-.78-14.148-.09-4.65.12-5.517.07-6.958 0 0-1.54-8.484-1.43-6.773.14 2.197.59 8.775.55 10.959-.02 1.376-.29 3.982-.45 5.734-.55 5.882 1.27 10.755.99 13.128-.28 2.378-.89 4.033-.42 4.83 0 0 .41-.028.59-.575z" fill="url(#c)"/><path d="M518.02 245.243c1.07.195 2.24-.871 2.63-1.358.48-.487 2.34-1.841 3.6-3.004l-3.41-2.517s-.39 1.548-2.43 4.167c-.88 1.164-2.14 2.517-.39 2.712zm10.71 5.813s.2.579 1.27.677c.97 0 1.46-.195 1.65-.677.39-.969.69-3.583.78-5.911l-3.7-1.455c0-.093-.87 5.72 0 7.366z" fill="#724c3b"/><path d="M518.33 160.703s-9.94-1.21-10.56-2.314c-1.8-3.226-1.47-6.374-2.83-11.57l-1.85 2.058s-1.4 8.173.52 12.094c1.74 3.565 6.96 3.978 12.04 6.282 0 0 2.93.723 4.12-2.638 1.18-3.365-1.44-3.912-1.44-3.912z" fill="#4e2d23"/><path fill-rule="evenodd" clip-rule="evenodd" d="M529.75 156.243c-1.8 0-3.25 1.446-3.25 3.231a3.237 3.237 0 0 0 3.25 3.231c1.79 0 3.24-1.446 3.24-3.231 0-1.78-1.45-3.231-3.24-3.231z" fill="#0c022f"/><path fill-rule="evenodd" clip-rule="evenodd" d="M525.1 154.175c-1.92 0-3.49 1.558-3.49 3.472 0 1.915 1.57 3.472 3.49 3.472 1.92 0 3.49-1.557 3.49-3.472 0-1.914-1.57-3.472-3.49-3.472z" fill="#0c022f"/><path d="m532.88 183.454-.42-.167c-.75-1.924-2.52-3.847-5.04-5.354-2.02-1.173-4.12-1.757-6.05-1.757-1.94 0-3.37.668-4.12 1.84 0 0 0 .084-.08.084l-.34-.084v1.507c0 .922.17 1.924.84 2.93.92 1.673 2.61 3.18 4.62 4.348 2.02 1.173 4.12 1.757 6.05 1.757 1.94 0 3.37-.668 4.12-1.84.25-.501.34-1.006.42-1.507z" fill="#5333ed"/><path d="M537.75 171.662c-.5-1.173-1.09-1.59-1.09-1.59l-14.29-8.201c-.93-.501-2.69-1.173-4.03-1.173-1.6 0-2.52.584-2.95 1.841a11.767 11.767 0 0 0-.5 4.098l.67 10.124a6.361 6.361 0 0 0 1.94 3.514c.75 1.756 2.51 3.597 4.87 5.02 2.69 1.507 5.38 1.673 7.48 1.59 1.43-.084 3.53-.668 4.37-1.507 0 0 1.18-.839 1.01-3.764-.08-2.007 1.51-2.763 2.44-5.938.42-1.423.42-3.263.08-4.014z" fill="#fff"/><path d="M535.32 176.872s-16.91 2.211-20.8.283c-3.89-1.929-9.91-10.853-9.91-10.853l1.83-1.905s7.11 6.958 9.54 7.519c5.36 1.247 18.17-2.61 19.72-1.924 3.09 1.368 2.41 6.819-.38 6.88z" fill="#5b3427"/><path d="M528.01 164.717c-.09-1.674 0-5.02 0-5.02h-3.62v3.847c-.33 0-.75-.083-1.01 0-.67.084-1.18.334-1.43.835-.67 1.172.42 3.096 2.52 4.264 2.1 1.173 4.29 1.173 4.96 0 .5-.834.09-1.923-.84-2.929-.16-.079-.58-.663-.58-.997z" fill="#5b3427"/><path d="M524.39 162.288v-4.182l3.61 2.258v3.43c-1.26.084-2.77.167-3.61-1.506z" fill="#4e2d23"/><path d="M525.48 162.687c-1.94-.265-3.47-1.011-3.06-4.219l.45-3.63c.31-2.359 2.26-4.023 4.39-3.792 2.13.237 3.65 2.383 3.36 4.664l-.36 2.781c-.2 2.568-2.39 4.427-4.78 4.196z" fill="#5b3427"/><path fill-rule="evenodd" clip-rule="evenodd" d="M530.99 157.319c.71.222 1.1.978.88 1.682a1.354 1.354 0 0 1-1.69.872 1.344 1.344 0 0 1-.88-1.683c.22-.704.98-1.094 1.69-.871z" fill="#5b3427"/><path d="m529.78 158.788 1.01-1.534c.21-.084.45-.019.64-.144 1.28-.834.89-3.546-.78-5.08-1.67-1.535-4.46-1.646-5.35-.682-.01.009-.01.019-.02.028-.4-.102-.92-.088-1.45.079-.99.31-1.65 1.006-1.52 1.585-.3.399-.35.895-.23 1.261.18.584.71.617 1.72.301.63-.194 1.12-.547 1.37-.922.3.732.81 1.502 1.55 2.179.93.853 1.66 1.186 2.45 1.4-.11.431.61 1.529.61 1.529z" fill="#0c022f"/><path d="m413 247.371 3.06-5.456 3.98 3.556-5.44 3.412c-.99.625-2.17-.487-1.6-1.512z" fill="url(#d)"/><path d="M415.58 246.588c2.92 2.819 11.74-1.627 14.56-4.547 33.96-35.138 92.16-94.818 92.34-95.003 1.63-1.687.57-5.331-2.36-8.136-2.94-2.809-6.64-3.713-8.25-2.03-.15.148-58.59 60.101-92.33 95.017-2.81 2.906-6.87 11.89-3.96 14.699z" fill="url(#e)"/><path fill-rule="evenodd" clip-rule="evenodd" d="M503.41 145.54s.25.792-.34 1.414l-.31-1.766 1.03-.047z" fill="#5b3427"/><path d="M511.6 140.385c.91 3.129 4.22 6.295 7.39 7.079 3.18.779 5.01-1.122 4.1-4.251-.91-3.129-4.22-6.295-7.39-7.079-3.17-.779-5.01 1.122-4.1 4.251z" fill="url(#f)"/><path d="M469.71 183.279c.92 3.194 4.3 6.43 7.55 7.227 1.58.389 2.85.12 3.61-.631l.01.01-2.49 2.614-.01-.004c-.76.737-2.01.996-3.59.611-3.24-.797-6.63-4.033-7.55-7.227-.45-1.562-.24-2.818.48-3.611l.03-.037a.096.096 0 0 1 .04-.037l2.4-2.522c-.72.784-.94 2.045-.48 3.607z" fill="#c2d3eb"/><path d="M528.6 135.49c-.1.102-4.68 4.872-7.05 7.324-.39.571-1.16.807-2.18.557-1.8-.445-3.68-2.244-4.2-4.015-.29-1.001-.08-1.785.48-2.193 3.51-3.638 6.96-7.254 7.04-7.333.9-.936 2.96-.431 4.6 1.131 1.63 1.562 2.21 3.593 1.31 4.529z" fill="url(#g)"/><path fill-rule="evenodd" clip-rule="evenodd" d="m502.28 145.531-.31 2.628s1.01-.329.96-2.03l.55-.598z" fill="#5b3427"/><path fill-rule="evenodd" clip-rule="evenodd" d="m501.21 146.542-.25 2.062s.73.01.89-1.469l.56-.598h-1.2z" fill="#5b3427"/><path fill-rule="evenodd" clip-rule="evenodd" d="m500.48 147.297-.22 1.474s.57-.167.81-.802l.62-.672z" fill="#5b3427"/><path opacity=".2" d="m491.39 254.824-44.33 25.418L412 260.846l44.33-25.422Z" fill="url(#h)"/><path d="M482.3 259.683s.16.659-.09 1.053c-.24.398-1.37 1.4-4.25.347-2.89-1.052-7.22-3.662-7.22-3.662s-.54-.259-.44-1.038c.11-.779-.2-2.262-.2-2.262s.91-1.989 1.36-1.952c0 0 .74-.658 1.86-.329l2.8 4.404z" fill="#462ad3"/><path d="m464.59 253.62 6.66 3.592s-.69-.829-.76-2.419c-.07-1.59.97-2.624.97-2.624l-4.89-2.142-1.98 2.109z" fill="#eba072"/><path d="m481.73 258.01.01-.005s-3.74-1.59-4.54-2.693c-.79-1.104-1.89-3.162-1.89-3.162h-.01c-.19-.324-.72-.556-1.35-.556-.77 0-1.39.347-1.43.783 0 .005 0 .005-.01.005v.042l.01.871s-.28 1.372 1.77 4.033c2.05 2.661 5.52 3.041 5.52 3.041.24.079.52.13.83.13.94 0 1.7-.436 1.7-.974v-.778c0-.292-.24-.557-.61-.737z" fill="#fff"/><path d="M492.84 253.319s.16.658-.09 1.052c-.24.398-1.37 1.4-4.25.347-2.88-1.052-7.22-3.662-7.22-3.662s-.53-.259-.43-1.038c.1-.779-.21-2.262-.21-2.262s.92-1.989 1.37-1.952c0 0 .73-.658 1.86-.329l2.79 4.404z" fill="#462ad3"/><path d="m475.14 247.255 6.66 3.593s-.69-.83-.76-2.42c-.07-1.59.97-2.624.97-2.624l-4.89-2.142-1.98 2.11z" fill="#eba072"/><path d="M483.65 240.028c-.65-1.961-1.26-5.187-1.87-6.726-.63-1.553-.91-1.521-.91-1.521l-14.2 1.224-7.24-2.67c-1.17-.436-4.56 2.091-3.72 4.14.68 1.664 2.94 2.702 5.04 3.323-3.91-.746-9.44-1.627-10.56-.839-2.03 1.428-2.44 4.182-1.7 5.563.93 1.762 11.58 10.073 19.92 13.184 0 0-2.01-1.896-1.08-5.03l1.28.737c1.68.77 5.23.779 9.37-1.599 4.7-2.698 6.66-6.819 5.67-9.786z" fill="#150773"/><path opacity=".3" d="M467.35 250.681s-2.67-2.003-6.03-2.763c-3.37-.76-9.82-4.904-9.82-4.904l.06.38s5.08 4.26 9.62 5.266c0 0 2.36.793 3.19 1.404.9.663 2.71 2.244 2.71 2.244.01-1.061.27-1.627.27-1.627z" fill="url(#i)"/><path d="m486.66 249.879-2.79-4.404c-1.13-.329-1.86.329-1.86.329s-1.05 1.039-.98 2.624c.07 1.59.77 2.42.77 2.42z" fill="#462ad3"/><path d="m492.28 251.645.01-.005s-3.74-1.59-4.54-2.693c-.79-1.103-1.89-3.161-1.89-3.161h-.01c-.19-.325-.72-.557-1.35-.557-.77 0-1.39.348-1.43.784v.051l.01.876s-.29 1.372 1.76 4.033c2.05 2.661 5.52 3.041 5.52 3.041.25.079.53.13.84.13.93 0 1.69-.436 1.69-.974v-.779c0-.301-.24-.565-.61-.746z" fill="#fff"/><path d="M482.35 258.752s-.31.686-1.58.672c-1.26-.019-3.01.018-5.29-2.109-2.27-2.123-2.82-4.59-2.95-4.937l-.02 1.103s-.05.862.85 2.471c.9 1.608 2.24 3.282 5.44 4.232 3.19.95 3.51-.477 3.51-.477.1-.158.04-.955.04-.955zm10.54-6.305s-.31.686-1.57.672c-1.27-.018-3.02.019-5.3-2.109-2.27-2.123-2.82-4.589-2.95-4.937l-.02 1.103s-.05.863.85 2.471c.9 1.609 2.24 3.282 5.44 4.233 3.19.95 3.51-.478 3.51-.478.1-.158.04-.955.04-.955z" fill="#c2d3eb"/><path opacity=".3" d="M460.75 237.798s2.61.9 4.83.951c0 0 1.19-.051 1.58-.339 0 0 .21-.542.27-.751 0 0-2.52.515-8.08-.324z" fill="url(#j)"/><path d="m460.64 215.505 12.98-7.454v.005c.42-.292 1.05-.385 1.77-.279.59.089 1.23.311 1.85.668.65.375 1.18.839 1.55 1.321.41.538.59 1.224.56 1.901l2.35 18.213-.04.014c.23 2.48-2.03 5.697-5.72 7.816-4.4 2.531-9.16 2.531-10.63 0a3.37 3.37 0 0 1-.43-1.688v.005l-6.34-17.444c-.21-.941.64-2.239 2.1-3.078z" fill="#462ad3"/><path d="m467.46 210.119-3.2-.088a2.523 2.523 0 0 1-2.16-1.317l-2.09-5.929s4.22-1.808 4.27-1.715c.06.097 3.18 9.049 3.18 9.049z" fill="#ffc398"/><path d="m469.33 206.911-5.84-.588 3.08 6.962c.31.784 1.68.978 3.04.431 1.13-.449 2.13-1.617 2.1-2.359 0-.172-.22-.645-.22-.645z" fill="#ffc398"/><path d="M458.89 201.858c-.11-.533-.3-1.27.24-2.077.2-.301 1.16-1.098 1.5-1.145l-.02-.06a5.696 5.696 0 0 1 2.28-2.063 5.676 5.676 0 0 1 7.2 1.915v-.01a7.795 7.795 0 0 1 .82 4.645l-.03.181c-.25.932-.79 2.522-1.16 3.417-.09.217-1.05 1.293-1.22 1.237-2.72-.876-4.53-1.117-4.53-1.117l-.34-.955c-.69.005-.93.797-1.5.399-.32-.227-.82-1.595-1.06-1.933 0 0-1.81-.691-2.18-2.434z" fill="#120667"/><path d="M464.3 205.224c-.12-.273-.52-.487-1.02-.501-.59-.018-1.09.251-1.1.594 0 .041.03.074.04.111h-.02l.43 1.409 2.09 1.303s.56-1.168-.4-2.921zm-25.24 14.083s-2.25-.227-4.26-1.131l-1.87.417.09.148-.08.547s-1.04-.89-.66-1.242l1.98-.691-1.42.32.08.635-.28-.083-.29-.019-.09-1.261 2.43-.463-1.79.134.44.696-.53.143-.73-1.307 3.12-.459-1.81-.297.3 1.484-.69-.598-.21-1.479 3.14.125s3.36 1.294 4.08 2.197" fill="#ffc398"/><path d="M461.07 223.59s-5.37 2.16-9.53 3.319c-4.16 1.159-5.5.533-8.18-2.494-2.69-3.027-4.4-5.117-4.4-5.117s-.18-.89.17-2.022c.55-1.826 7.98 5.605 9.23 5.605 1.26 0 9.4-3.787 9.4-3.787z" fill="#ffc398"/><path d="m452.55 220.59 7.91-4.849 3.92 7.07-6.58 4.306c-1.05.835-3.07.051-4.52-1.752-1.45-1.803-1.78-3.94-.73-4.775z" fill="#462ad3"/><path d="m380.43 119.286-103.331 59.521-78.544-45.487V59.581L380.43 45.543Z" fill="#c2d7f7"/><path d="m380.43 45.487-103.331 59.521-78.544-45.487L301.88 0Z" fill="#2f8dd3"/><path d="M267.57 25.73c-1.704.981-.694 3.154 2.256 4.853 2.95 1.7 6.722 2.281 8.426 1.3l7.295-4.203-10.611-6.182s-5.662 3.25-7.366 4.232z" fill="#c2d7f7"/><path d="M274.871 21.551c-1.704.982-.694 3.155 2.256 4.854 2.95 1.699 6.722 2.28 8.426 1.299 1.704-.981.694-3.154-2.256-4.854-2.95-1.699-6.722-2.28-8.426-1.299z" fill="#fff"/><path d="M266.361 42.124c2.681-1.544 7.821-2.338 11.481-1.773 1.845.284 2.961.86 3.273 1.558.306.687 3.108 6.829 3.108 6.829l-16.204 2.573s-2.779-6.195-3.127-6.866c-.363-.701.1-1.533 1.469-2.321z" fill="#c2d7f7"/><path d="M269.533 49.055c2.68-1.544 7.821-2.338 11.481-1.773 3.66.564 4.455 2.274 1.774 3.818-2.68 1.544-7.82 2.338-11.481 1.773-3.66-.565-4.455-2.274-1.774-3.818z" fill="#fff"/><path d="M255.595 56.901c2.517-1.45 3.811-4.23 2.89-6.21-.464-.997-1.401-1.601-2.54-1.769-1.12-.166-11.13-1.681-11.13-1.681l-4.194 8.763s10.098 1.503 11.192 1.691c1.141.196 2.497-.054 3.782-.794z" fill="#c2d7f7"/><path d="m301.28 13.797 1.85-1.068 57.83 33.491-1.85 1.068-57.83-33.49zm-4.059 2.829 1.854-1.068 45.265 26.215-1.85 1.068zm-27.184 50.347 1.354-.78 26.826 15.536-1.353.78zm19.297-11.315 1.354-.78 26.822 15.536-1.35.78zm13.926-19.801 1.36-.78 38.64 22.377-1.36.78zm-42.526 36.066 1.354-.779 26.826 15.535-1.353.78zm19.315-11.314 1.353-.78 26.828 15.536-1.35.779zm13.91-19.802 1.353-.78 38.638 22.378-1.35.779zm-29.893 29.561 1.354-.78 30.833 17.856-1.354.78zm19.297-11.316 1.354-.779 30.833 17.856-1.35.779zm13.91-19.801 1.354-.78 42.643 24.697-1.35.78zm-30.23 29.419 1.353-.779 13.878 8.037-1.353.779zm19.297-11.315 1.353-.78 13.877 8.038-1.352.779zm13.91-19.942 1.35-.78 13.88 8.037-1.35.78zm-17.488 40.31 1.353-.78 9.582 5.549-1.354.78zm19.298-11.316 1.35-.779 9.58 5.549-1.35.779zm13.92-19.801 1.36-.78 21.39 12.391-1.35.779zm-57.869 27.156 1.354-.78 9.582 5.55-1.354.779zm19.297-11.315 1.354-.78 9.581 5.549-1.353.78zm13.912-19.802 1.354-.779 9.586 5.549-1.358.779zm89.11 6.133-103.305 59.32.007-.693L380.43 48.089zm0 20.791L277.125 128.89l.007-.693L380.43 68.881zm0-10.891-103.305 59.321.007-.693L380.43 57.99Z" fill="#81a4d5"/><path d="m198.555 72.963 78.578 45.121-.007-.693-78.57-45.116zm0-5.233 78.578 45.12-.007-.693-78.57-45.115z" fill="#81a4d5"/><path d="m198.555 89.37 78.578 45.121-.007-.693-78.57-45.116z" fill="#c2d7f7"/><path d="m198.555 100.969 78.578 45.12-.007-.693-78.57-45.115zm0 1.979 78.578 45.12-.007-.693-78.57-45.115zm0 12.73 78.578 45.12-.007-.693-78.57-45.115zM380.43 72.68l-103.305 59.321.007-.693L380.43 71.992Zm0 7.355-103.305 59.321.007-.693L380.43 79.347zm0 12.73-103.305 59.32.007-.693L380.43 92.076zm0 9.618-103.305 59.32.007-.693 103.298-59.316zm0 2.546-103.305 59.32.007-.693L380.43 104.24zm0 12.164-103.305 59.32.007-.693 103.298-59.316z" fill="#81a4d5"/><path fill-rule="evenodd" clip-rule="evenodd" d="M298.09 105.798c5.55-.93 10.83-.793 15.88-.029 1.73-3.003 2.74-6.619 3.01-10.864zm60.9 14.144c5.55-.93 10.83-.793 15.88-.029 1.73-3.003 2.74-6.619 3.01-10.864zm-94.375 27.964c4.79 4.602 8.378 9.028 12.258 12.903 15.346-11.563 31.717-21.64 47.167-31.534l-46.732 25.476zm12.023-13.986-78.075-44.955s-2.667 3.183-4.563 6.526c0 0 20.641 6.638 82.638 38.429z" fill="#f3f3f6"/><path d="M186.428 166.054 83.099 225.575 4.555 180.088v-73.739l181.873-14.037Z" fill="#c9d8ee"/><path d="M186.428 92.255 83.099 151.777 4.555 106.29l103.328-59.521Z" fill="#5333ed"/><path d="M35.252 99.713c-4.208 2.423-1.714 7.789 5.57 11.985 7.284 4.195 16.598 5.632 20.806 3.208 4.207-2.424 1.714-7.789-5.57-11.985-7.284-4.195-16.599-5.632-20.806-3.208z" fill="#fff"/><path d="M36.596 99.824c-3.943 2.271-1.606 7.301 5.221 11.233 6.826 3.933 15.557 5.279 19.5 3.007l52.699-30.356-24.558-14.309S40.54 97.552 36.596 99.824z" fill="#c9d8ee"/><path d="M89.383 69.512c-3.943 2.272-1.606 7.301 5.221 11.233 6.826 3.933 15.557 5.279 19.5 3.007 3.944-2.271 1.607-7.3-5.22-11.233-6.827-3.932-15.557-5.278-19.501-3.007z" fill="#f3f3f6"/><path d="M90.768 69.675c-3.662 2.11-1.491 6.78 4.848 10.432 6.34 3.652 14.447 4.902 18.109 2.793 3.662-2.11 6.511-9.671.171-13.323-6.339-3.652-19.466-2.011-23.128.098z" fill="#fff"/><path d="M109.735 69.503c-.685.395-.279 1.269.908 1.953 1.187.684 2.705.918 3.39.523l4.948-2.85c2.162-1.246 3.529-2.822 3.529-2.822.486-.642.108-.788-.937-.551l-3.375 1.28 2.274-1.92c.753-.666.009-.831-.862-.508 0 0-2.732.784-4.899 2.032z" fill="#fff"/><path d="M94.399 92.674c-4.207-.347-9.142-1.853-13.386-4.297-4.134-2.382-6.721-5.141-7.409-7.522L48.783 95.153c.689 2.381 3.275 5.14 7.409 7.521 4.244 2.445 9.18 3.95 13.387 4.297z" fill="#0a54c9"/><path fill-rule="evenodd" clip-rule="evenodd" d="M70.498 101.456s1.371 1.773-.819 3.065c0 0-.326-.239-.781-.462-.454-.224-1.746-.241-2.523-1.522-.777-1.281 2.003-2.195 2.003-2.195s-.961-1.799 1.253-2.801c0 0 .882-.228 1.62-.562 0 0 2.653 1.439.37 2.772 0 0 1.253-.492 2.718.09 1.466.583 1.823 1.231 2.205 1.401 0 0-2.739 2.05-6.046.214z" fill="#18a0aa"/><path fill-rule="evenodd" clip-rule="evenodd" d="M68.419 97.006c3.319 2.724 1.443 4.274-.051 5.651-1.472 1.357-9.262.173-12.149-3.384-2.888-3.557-.882-3.47 1.445-3.7 3.485-.345 7.469-1.263 10.755 1.433z" fill="#ea3d63"/><path fill-rule="evenodd" clip-rule="evenodd" d="M66.157 102.365c-.267-.028-.502.002-.523.068-.021.067.18.143.447.171.268.028.502-.002.523-.069.021-.066-.179-.142-.447-.17zm-1.719-1.273c-.267-.028-.501.003-.522.069-.021.066.179.142.446.17.268.029.502-.002.523-.068.021-.066-.179-.143-.447-.171zm2.039-4.668c-.267-.029-.501.002-.522.068-.021.066.179.143.447.171.267.028.501-.003.522-.069.021-.066-.179-.142-.447-.17zm1.676 4.961c-.263-.04-.501-.02-.531.045-.03.065.16.15.423.19.263.04.5.02.53-.045.03-.065-.159-.15-.422-.19zm-.846-1.263c-.258-.05-.498-.038-.535.025-.037.064.143.156.401.206.258.05.497.038.534-.025.037-.064-.142-.156-.4-.206zm1.596-1.697c-.258-.05-.498-.039-.535.025-.037.064.142.156.4.205.258.05.498.039.535-.025.037-.064-.142-.156-.4-.205zm-6.25 1.02c-.242-.072-.482-.082-.535-.022-.053.06.1.167.342.238.242.072.481.082.535.022.053-.06-.1-.167-.342-.238zm.395-3.592c-.27-.018-.5.021-.514.087-.014.067.194.136.464.155.271.018.501-.021.515-.088.014-.066-.195-.136-.465-.154zm-3.018.055c-.242-.071-.482-.081-.535-.021-.053.06.1.166.342.238.242.072.481.081.535.022.053-.06-.1-.167-.342-.239zm2.415 1.906c-.196-.108-.421-.157-.502-.109-.081.049.013.176.209.285.196.108.421.157.501.109.081-.048-.012-.176-.208-.285zm3.554.195c-.253-.057-.493-.052-.536.011-.042.062.13.159.383.216.254.057.494.052.536-.01.042-.063-.129-.16-.383-.217zm-3.331 4.103c-.253-.058-.494-.053-.536.009-.043.063.128.16.381.217.253.058.493.054.536-.009.042-.062-.128-.16-.381-.217zm-3.232-1.202c-.209-.101-.439-.141-.514-.09-.075.052.033.175.242.276.208.101.438.141.513.09.075-.052-.033-.175-.241-.276zm-2.294-1.763c-.141-.133-.337-.214-.436-.179-.1.035-.066.172.075.306.142.134.337.214.437.179.1-.035.066-.172-.076-.306zm-.806-2.213c-.08-.15-.235-.255-.346-.236-.111.02-.137.157-.057.307.08.149.235.255.346.235.111-.02.137-.157.057-.306zm3.088 2.447c-.187-.114-.408-.168-.493-.122-.084.047 0 .176.188.29.187.113.408.168.493.121.084-.046 0-.176-.188-.289zm-.659-2.044c-.108-.143-.281-.238-.388-.212-.107.027-.107.165.001.309.107.143.281.238.388.212.107-.027.106-.165-.001-.309z" fill="#ffc398"/><path fill-rule="evenodd" clip-rule="evenodd" d="M81.817 91.375s-3.609.848-4.023 1.386c-.415.537 2.591 2.448-1.245 4.3 0 0 .984 4.926-6.636 3.882 0 0-4.25-.717-6.012-2.926-1.762-2.21-5.596-2.341-7.669-2.221-2.073.119-.273-4.222 5.959-3.363 0 0 1.349-2.329 5.34-2.299 0 0 1.659-2.031 4.613-.986 0 0 2.281-1.851 4.406.089 2.125 1.941 3.504 2.198 5.267 2.138z" fill="#fff"/><path d="m128.363 72.871 1.854-1.068 36.746 21.28-1.854 1.068zm-4.056 2.688 1.854-1.068 24.181 14.004-1.854 1.067zm-48.27 38.183 1.354-.78 26.826 15.536-1.353.779zm19.297-11.315 1.354-.78 26.826 15.536-1.354.779zm18.873-11.033 1.353-.779 26.827 15.535-1.354.78zm-47.473 27.298 1.354-.78 26.826 15.536-1.353.78zm19.315-11.315 1.353-.78 26.827 15.536-1.354.78zm18.871-11.033 1.353-.779 26.827 15.536-1.354.779zm-34.854 20.792 1.354-.779 30.832 17.856-1.353.779zm19.297-11.315 1.354-.78 30.832 17.856-1.353.78zm18.871-11.173 1.354-.78 30.832 17.856-1.353.779zm-35.191 20.791 1.353-.78 13.878 8.037-1.353.78zm19.297-11.315 1.353-.78 13.878 8.037-1.353.78zm18.871-11.174 1.353-.78 13.878 8.038-1.353.779zm-22.449 31.541 1.353-.779 9.582 5.549-1.353.779zm19.297-11.315 1.353-.78 9.582 5.549-1.354.78zm18.871-11.033 1.353-.779 9.582 5.549-1.354.779zm-62.819 18.388 1.354-.78 9.582 5.549-1.354.78zm19.297-11.316 1.354-.779 9.582 5.549-1.354.779zm18.873-11.173 1.354-.78 9.581 5.549-1.353.78zm84.153-2.496L83.125 154.867l.007-.693 103.301-59.316zm0 20.791L83.125 175.658l.007-.693 103.301-59.316zm0-10.89L83.125 164.768l.007-.693 103.301-59.316z" fill="#80a6dc"/><path d="m4.555 119.732 78.578 45.12-.007-.693-78.57-45.116zm0-5.233 78.578 45.121-.007-.693-78.57-45.116z" fill="#80a6dc"/><path d="m4.555 136.139 78.578 45.12-.007-.693-78.57-45.115z" fill="#c9d8ee"/><path d="m4.555 147.737 78.578 45.121-.007-.693-78.57-45.116zm0 1.98 78.578 45.12-.007-.693-78.57-45.116zm0 12.729 78.578 45.121-.007-.693-78.57-45.116zm181.879-42.997L83.125 178.77l.007-.693 103.301-59.316zm0 7.355L83.125 186.125l.007-.693 103.301-59.316zm0 12.729L83.125 198.854l.007-.693 103.301-59.316zm0 9.618L83.125 208.472l.007-.693 103.301-59.316zm0 2.546L83.125 211.018l.007-.693 103.301-59.316zm0 12.164L83.125 223.182l.007-.693 103.301-59.316z" fill="#80a6dc"/><path fill-rule="evenodd" clip-rule="evenodd" d="M104.09 152.566c5.549-.929 10.83-.793 15.878-.028 1.733-3.003 2.743-6.62 3.011-10.864zm60.902 14.144c5.549-.929 10.83-.793 15.878-.028 1.734-3.003 2.743-6.62 3.011-10.864zM4.646 119.186l14.672 8.576s-6.669-1.627-17.191-.148zm65.969 75.488c4.79 4.603 8.378 9.029 12.258 12.903 15.346-11.562 31.719-21.639 47.17-31.533l-46.735 25.475Zm12.023-13.986L4.562 135.733S1.896 138.917 0 142.26c0 0 20.641 6.638 82.638 38.428z" fill="#f3f3f6"/><path d="m146 227.749 103.329 59.521 78.541-45.487v-73.74L146 154.006Z" fill="#c9d8ee"/><path d="m146 153.95 103.328 59.521 78.542-45.487-103.325-59.521Z" fill="#f3f3f6"/><path d="m214.494 124.241-1.854-1.068-36.745 21.28 1.854 1.068zm22.664 2.122-1.854-1.068-36.745 21.28 1.854 1.068zm12.74 6.788-1.854-1.068-36.745 21.281 1.854 1.068zm-4.544-2.262-1.853-1.068-42.233 24.458 1.853 1.068zm-8.08 13.86-1.853-1.068-42.233 24.459 1.854 1.067zm-39.596 4.385-1.854-1.068-19.01 11.008 1.854 1.068zm12.742 6.789-1.854-1.068-19.009 11.009 1.854 1.067zm30.85-27.298-1.854-1.068-19.01 11.009 1.854 1.068zm16.145 8.911-1.854-1.068-33.967 19.671 1.854 1.068zm-37.675 3.536-1.854-1.068-13.124 7.601 1.854 1.067zm-15.409 8.911-1.854-1.068-21.426 12.408 1.854 1.068zm16.125 9.051-1.854-1.068-21.426 12.409 1.854 1.068zm-8.444-28.429-1.854-1.068-24.181 14.004 1.853 1.068z" fill="#5333ed"/><path d="M269.438 166.425c-3.583-2.064-5.424-6.021-4.113-8.84s5.278-3.43 8.861-1.367c3.582 2.064 5.424 6.022 4.113 8.841-1.311 2.818-5.278 3.43-8.861 1.366" stroke="#120667" stroke-width=".005" stroke-miterlimit="1.414" stroke-linejoin="round"/><path d="M237.737 162.097c9.842-5.669 22.664-7.476 28.349-4.202 0 0 22.656 11.819 14.383 21.683l-.063.036c-.922 1.421-2.554 2.913-4.878 4.252-2.326 1.34-4.685 2.123-7.382 2.81-10.934 2.789-27.061-2.117-37.704-8.248-5.685-3.275-2.549-10.66 7.295-16.331z" fill="#120667"/><path d="M231.249 177.959c5.427 3.126 17.446 1.272 26.844-4.141 9.399-5.414 12.617-12.337 7.189-15.464-5.428-3.126-17.446-1.273-26.845 4.142-9.398 5.413-12.616 12.336-7.188 15.463z" fill="#120667" stroke="#5333ed" stroke-width=".004" stroke-miterlimit="1.414" stroke-linejoin="round"/><path d="M237.671 173.03c3.287-2.235 3.887-3.312 4.598-4.571.958-1.691 5.159-4.416 9.359-5.015 6.282-.897 6.192-2.356 9.29-2.936 2.042-.382 5.437.115 5.582.478.613 1.551 1.43 5.885-8.811 12.068 0 0-5.489 3.613-13.963 5.204 0 0-3.553.69-7.111.393-1.198-.1-2.716-3.055 1.056-5.621z" fill="#5b3427"/><path d="M259.267 169.373c.778.448.317 1.44-1.03 2.215-1.346.776-3.068 1.042-3.845.594l-3.33-1.918 4.844-2.822s2.584 1.483 3.361 1.931z" fill="#dfe9f8"/><path d="M255.945 167.519c.777.448.316 1.44-1.03 2.215-1.346.776-3.068 1.041-3.846.594-.777-.448-.316-1.44 1.03-2.216 1.346-.775 3.068-1.041 3.846-.593z" fill="#fff"/><path d="M252.703 173.119c.52.299.212.963-.689 1.482-.901.518-2.052.696-2.572.396l-2.227-1.282 3.24-1.888z" fill="#dfe9f8"/><path d="M250.483 171.832c.52.3.211.963-.689 1.482-.901.518-2.052.696-2.572.397-.521-.3-.212-.963.688-1.482.901-.519 2.053-.697 2.573-.397z" fill="#fff"/><path d="M262.38 161.662c-.89-.138-4.485.578-4.485.578l-.454 3.221s3.657-.562 3.766-.566c.809-.029 1.673-.595 2.037-1.377.413-.888.026-1.719-.864-1.856z" fill="#dfe9f8"/><path d="M258.39 162.228c-.89-.138-1.946.471-2.359 1.359-.413.887-.027 1.718.864 1.856.89.137 1.946-.471 2.359-1.359.413-.888.026-1.719-.864-1.856z" fill="#fff"/><path d="M243.546 172.986c-.813-.468-2.373-.709-3.483-.537-.56.086-.898.261-.993.472-.093.209-.943 2.072-.943 2.072l4.915.78s.844-1.879.949-2.083c.11-.212-.03-.464-.445-.704z" fill="#dfe9f8"/><path d="M242.594 175.108c-.813-.469-2.372-.709-3.482-.538-1.111.172-1.352.69-.539 1.158.813.469 2.373.71 3.483.538 1.11-.171 1.351-.69.538-1.158z" fill="#fff"/><path d="M248.517 166.243c-1.07-.617-3.122-.933-4.583-.708-.736.114-1.182.343-1.306.622-.123.275-1.241 2.726-1.241 2.726l6.467 1.027s1.11-2.473 1.249-2.741c.145-.28-.04-.612-.586-.926z" fill="#dfe9f8"/><path d="M247.261 169.071c-1.07-.616-3.122-.933-4.583-.707-1.461.225-1.778.908-.709 1.524 1.07.616 3.122.933 4.583.707 1.461-.225 1.778-.908.709-1.524z" fill="#fff"/><path fill-rule="evenodd" clip-rule="evenodd" d="M239.05 176.322s-.084-.773 1.217-.966c1.301-.194 1.468-.025 2.287-.689.818-.665-.756-1.451.629-2.442 1.385-.991 3.357 1.088 2.685 2.877-.671 1.788-6.105 2.743-6.818 1.22zm13.056-4.707s1.539-.467 4.392-.177c2.853.29 1.93-.789 2.126-2.191.196-1.402 1.063-1.418 2.07-.999 1.007.419.42 2.111-1.902 3.609-2.322 1.499-7.916 2.175-6.686-.242zm-9.247-.5s2.231-1.749 5.75-2.843c3.52-1.094.867-.609.773-.663-.093-.054-1.685-1.006-1.466-2.031.218-1.025 3.776 1.348 3.776 1.348l-4.213 4.549s-4.62.539-4.62-.36zm15.258-5.169s.656-2.715 5.961-4.117c5.306-1.403-2.528 5.699-5.961 4.117z" fill="#5b3427"/><path d="m146 157.241 103.309 59.32-.007-.693-103.301-59.316zm0 20.791 103.309 59.321-.007-.693-103.301-59.316zm0-10.749 103.309 59.321-.007-.693-103.301-59.316zm181.89 14.143-78.581 45.121.007-.693 78.574-45.116zm0-5.232-78.581 45.12.007-.693 78.574-45.115z" fill="#91b1df"/><path d="m327.89 197.834-78.581 45.12.007-.693 78.574-45.116z" fill="#dfe9f8"/><path d="m327.89 209.432-78.581 45.12.007-.693 78.574-45.115zm0 1.979-78.581 45.121.007-.693 78.574-45.116zm0 12.73-78.581 45.12.007-.693 78.574-45.115zM146 181.144l103.309 59.32-.007-.693-103.301-59.316zm0 7.354 103.309 59.321-.007-.693-103.301-59.316zm0 12.73 103.309 59.321-.007-.693-103.301-59.316zm0 9.618 103.309 59.321-.007-.693-103.301-59.316zm0 2.546 103.309 59.32-.007-.693-103.301-59.316zm0 12.164 103.309 59.32-.007-.693-103.301-59.316z" fill="#91b1df"/><path fill-rule="evenodd" clip-rule="evenodd" d="M228.346 214.261c-5.549-.93-10.83-.793-15.878-.029-1.733-3.003-2.743-6.619-3.011-10.864zm-60.906 14.144c-5.549-.93-10.83-.793-15.878-.028-1.734-3.004-2.743-6.62-3.011-10.865zm160.35-47.525-14.67 8.576s6.67-1.626 17.19-.148zm-65.978 75.63c-4.789 4.603-8.378 9.029-12.257 12.903-15.346-11.562-31.72-21.639-47.17-31.533l46.735 25.475zm-12.007-13.986 78.075-44.955s2.67 3.184 4.56 6.527c0 0-20.64 6.638-82.635 38.428z" fill="#f3f3f6"/><path d="M61.896 212.469s3.419 9.938 8.629 13.25c3.46 2.195 10.379 2.236 15.965-8.364l-2.168-3.354s-5.544 8.406-10.921 5.963c-3.793-1.739-6.836-11.76-6.836-11.76z" fill="#b7835f"/><path d="m14.916 279.546-4.085-8.82c-.166-.331-.125-.745.084-1.076" fill="#dfe9f8"/><path d="m10.459 268.862 1.209-1.698c.542-.745 1.459-1.118 2.334-.91l.667.124a2.753 2.753 0 0 1 2.168 2.153c.375 1.698.708 4.14.875 6.749.083 1.159.083 2.07.167 2.733.125.952.041 2.36-.917 2.277 0 0-1.918-.207-2.585-1.532" fill="#351812"/><path d="m17.253 262.526 4.085 2.029-4.418 4.1c-.375.579-1.417.745-2.543.414-1.25-.373-2.042-1.284-1.834-1.988a.99.99 0 0 1 .25-.373z" fill="#c2d3eb"/><path d="M13.252 269.066c-.042.622.75 1.16 1.792 1.243 1.042.083 1.959-.332 2.001-.911.041-.621-.751-1.16-1.793-1.242-1.042-.083-1.959.289-2 .91z" fill="#351812"/><path d="M17.419 271.885c-.083 0-.125-.042-.208-.083a2.442 2.442 0 0 0-1.167-.414c-.542-.041-1.084.041-1.376.29-.125.124-.334.083-.459-.083-.125-.124-.083-.331.084-.455.417-.332 1.125-.456 1.792-.415a2.693 2.693 0 0 1 1.459.539c.125.124.167.29.042.455 0 .124-.084.166-.167.166zm-.124-1.205c-.083 0-.125-.041-.208-.083a2.453 2.453 0 0 0-1.168-.414c-.666-.041-1.208.124-1.458.331a.328.328 0 0 1-.459 0 .323.323 0 0 1 0-.455c.417-.414 1.167-.621 1.959-.538a2.966 2.966 0 0 1 1.501.538c.125.124.167.29.041.455-.041.125-.125.166-.208.166zm.207 2.57c-.084 0-.125-.041-.209-.083-.25-.207-.625-.331-1.042-.372-.5-.042-1 .041-1.25.248-.125.124-.334.083-.459-.041-.125-.125-.083-.332.042-.456.417-.29 1.042-.455 1.709-.373.542.042 1.042.207 1.376.497.125.125.166.29.041.456 0 .083-.125.124-.208.124z" fill="#0c022f"/><path d="M14.543 278.592s.208.704.917 1.16c.875.579 1.918.414 2.126.331l-.375.538s-1.334.166-2.084-.331c-.709-.497-1.251-1.242-2.001-2.857l-2.084-4.555-.25.373-1.251-3.106.917-1.283s.75 1.822 1 3.147c.084.372.376.704.542 1.076zm-.209-14.865.917-.87c.667-.662 2.084-.911 3.585-.455 1.834.538 3.126 1.822 2.793 2.898-.084.29-.334.58-.626.745l.042.042-.875.828c-.667.621-2.084.828-3.543.414-1.834-.538-3.127-1.822-2.793-2.898.041-.166.125-.29.208-.414l.084-.083c.083-.124.166-.166.208-.207z" fill="#dfe9f8"/><path d="m16.294 262.237-.208.249c-.125.165-.292.787-.292.952-.042.87 1.042 2.029 2.501 2.319 1.376.248 1.292.911 2.668.248 0 0 13.422-7.991 14.381-10.268.959-2.278 3.918-21.2 7.628-23.147l1.793-6.749-12.089-1.739s-5.419 5.59-4.418 24.761c0 0 .25 2.94-.501 3.768-.5.538-9.295 6.211-11.463 9.606z" fill="#0c022f"/><path d="m60.187 286.499 1.667-1.283-.125-.704-1.625 1.325z" fill="#c2d3eb"/><path d="m56.895 283.56-.334-2.071a2.34 2.34 0 0 1 1.042-2.277l.584-.373c.958-.579 2.167-.58 3.084.042 1.459.993 3.377 2.484 5.378 4.264.875.787 1.5 1.408 2 1.822.751.58 1.709 1.657.917 2.236 0 0-1.5 1.16-2.917.663l-9.088-3.52c-.333-.083-.625-.414-.666-.786z" fill="#351812"/><path d="m56.352 274.823 3.96-2.236.958 5.963c.292.621-.167 1.573-1.084 2.319-1 .786-2.209.993-2.667.414a1.232 1.232 0 0 1-.167-.414z" fill="#c2d3eb"/><path d="M59.062 281.782c.375.455 1.334.331 2.167-.331.834-.663 1.167-1.574.792-2.029-.375-.456-1.334-.331-2.167.331-.834.621-1.209 1.532-.792 2.029z" fill="#351812"/><path d="M61.605 282.981h-.042c-.167-.041-.292-.207-.25-.372.083-.539.458-1.118 1-1.532.459-.373.959-.58 1.417-.622.167-.041.334.125.334.29 0 .166-.125.332-.292.332-.333.041-.75.207-1.084.496-.416.332-.708.787-.792 1.16 0 .124-.125.248-.291.248zm-.959-.662c-.167 0-.334-.166-.334-.332 0-.579.417-1.242 1.043-1.739.458-.372.958-.579 1.417-.621.167 0 .333.124.333.29 0 .166-.125.331-.292.331-.333.042-.75.207-1.083.497-.542.414-.792.953-.792 1.242.041.207-.084.332-.292.332zm2.127 1.406h-.042c-.167-.041-.292-.207-.25-.372.083-.497.417-1.035.958-1.449a3.224 3.224 0 0 1 1.334-.621c.167 0 .334.124.334.289 0 .166-.125.332-.292.332a1.992 1.992 0 0 0-1 .455c-.376.331-.667.704-.709 1.035-.042.249-.167.331-.333.331z" fill="#0c022f"/><path d="M56.895 283.56s1.792.787 2.917 1.574c.334.207.709.414 1.084.579l5.711 2.236s.709.207 1.542.042c1.001-.207 1.668-1.035 1.751-1.201l.125.663s-.875 1.035-1.751 1.2c-.875.166-1.75-.041-3.418-.704-1.417-.579-4.668-1.863-4.668-1.863l.083.456-3.085-1.367z" fill="#fff"/><path d="M55.769 275.819c-.209-.828.333-2.029 1.375-2.94 1.292-1.159 2.918-1.49 3.585-.745.167.165.25.414.292.662l.25 1.118c.208.828-.292 2.029-1.376 2.982-1.292 1.159-2.917 1.49-3.584.745a.937.937 0 0 1-.25-.497z" fill="#dfe9f8"/><path d="M43.263 237.227c-1.542-2.609-2.501-6.542-2.334-9.938.208-3.933 1.876-5.672 5.21-8.612 0 0 6.086-.745 6.045 1.201-.084 2.443-1.126 5.921-1.126 5.921s9.046 19.544 9.046 26.707c0 1.242-.417 17.391.375 19.668.333.704-.125 1.863-1.126 2.774-1.125.994-2.501 1.284-3.084.663-.125-.124-.209-.331-.251-.497-1.125-3.147-2.417-17.267-3.084-20.372-.042.041-7.837-14.41-9.671-17.515z" fill="#0c022f"/><path d="m59.73 212.345 7.587-5.88s2.126 6.459 2.293 6.915c.333.952-.334 2.401-2.835 3.933-2.168 1.367-3.835.539-4.377-.207z" fill="#fff"/><path d="M56.979 213.34c1.292-.165 3.085-.372 3.46-.331.584.124.709.621-.542.704-1.25.124-3.085.952-3.085.952zm4.792 2.605s3.585-2.402 4.086-2.733c.5-.331.625.787-.251 1.449-.875.663-3.459 1.905-3.459 1.905z" fill="#dfe9f8"/><path d="M46.516 203.358c6.294-2.815 8.586-2.111 12.671-2.194 1.501-.042 3.919.828 3.585.786 4.836 1.657 6.211 6.791 3.043 10.808 0 0-7.42 5.921-10.462 7.784-.667.414-4.044 3.644-5.378 4.182-7.086 2.898-19.841 7.577-17.674-.331.334-1.16 1.209-6.584 1.209-6.584s-.542-4.348 2.376-7.37c0 0 4.46-4.348 10.63-7.081z" fill="#fff"/><path d="M53.811 213.792c-1.251 0-2.585-.414-3.627-1.242-1.042-.787-1.625-1.822-1.625-2.899 0-.828.417-1.614 1.167-2.153 1.626-1.2 4.377-.993 6.252.456 1.042.787 1.626 1.863 1.626 2.898 0 .828-.417 1.615-1.167 2.153-.709.539-1.667.787-2.626.787zm-1.501-6.045c-.792 0-1.5.207-2.042.579-.5.373-.751.829-.751 1.408 0 .746.459 1.491 1.251 2.112 1.501 1.159 3.835 1.366 5.127.414.5-.373.75-.828.75-1.366 0-.746-.458-1.491-1.25-2.112-.876-.704-2.043-1.035-3.085-1.035z" fill="#dfe9f8"/><path d="m49.31 209.899 3.084-6.666 7.837-.042-4.252 9.068c-.959 2.071-6.753.29-6.669-2.36z" fill="#9e684d"/><path d="m57.604 208.865 2.126-4.472-7.754-.083-.833 1.781c.375 1.573 1.709 3.726 5.002 3.602.5 0 .708-.083 1.167-.165" fill="#7c4e2e"/><path d="M53.769 213.794c-1.251 0-2.585-.414-3.627-1.242-1.417-1.077-1.959-2.609-1.375-3.892.125-.249.375-.373.625-.249s.333.373.25.621c-.375.87.042 1.946 1.084 2.774 1.542 1.16 3.835 1.367 5.127.414a.473.473 0 0 1 .667.083.465.465 0 0 1-.084.663c-.75.58-1.667.828-2.667.828z" fill="#dfe9f8"/><path d="M63.397 200.002a3.105 3.105 0 0 1 1.292.538.72.72 0 0 1 .251.248c.375.622-.209 1.615-1.293 2.195l-.25.166c-1.209.91-3.001.828-4.918-.249.083.042 4.543-2.981 4.918-2.898z" fill="#5333ed"/><path d="M49.475 203.936a1.634 1.634 0 0 1 1.251-1.904h.083l.25-1.781c-.083-2.774 1.876-4.016 4.752-4.058 2.876-.082 5.211.953 5.294 3.727l.084 4.265c.083 3.809-1.96 4.554-4.544 4.637-2.501.042-4.627-1.49-5.419-3.685-.834.083-1.584-.414-1.751-1.201z" fill="#b7835f"/><path d="M58.479 199.795c.042.125.25.125.417 0 .167-.124.292-.289.209-.372-.042-.124-.25-.124-.417 0-.167.083-.25.29-.209.372z" fill="#18a0aa"/><path d="M52.184 203.981c.333.207.625 0 .625-.456v-1.78c0-.456-.292-.994-.625-1.16-.334-.207-.625 0-.625.456v1.78c0 .456.291.994.625 1.16z" fill="#5b3427"/><path d="M55.769 195.035c2.251-.041 4.169 1.284 4.961 3.189l4.001 2.277c-.5-.331-1.417-.248-2.292.248-.167.083-.292.208-.417.29l-.084.083-2.25 1.946c-1.251.911-3.002.828-4.878-.248l-3.001-1.739h-.041l-.918-.497v-.497c-.166-2.691 2.085-5.01 4.919-5.052z" fill="#1b0971"/><path d="M50.766 202.031s.501.124.792.828l.459-.207-.125-1.367-1.167-.662z" fill="#5b3427"/><path d="m11.376 206.962-.458 19.006 50.437 24.926.459-19.005z" fill="#999"/><path d="m8 208.658.959 19.005 49.937 22.981-.959-19.006z" fill="#c2d3eb"/><path d="m11.334 214.168.125 19.006 51.271 25.382-.125-19.005z" fill="url(#k)"/><path d="M28.842 244.393s1 2.278 1.5 2.816c1.751 2.07 3.544 1.739 4.627 1.366 1.626-.538 3.418-2.07 3.418-2.07l-4.168-2.277h-2.751z" fill="#b7835f"/><path d="M34.011 244.309c-2.96-5.714-4.002-11.967-3.418-15.983 0-2.899 10.295-10.849 10.295-10.849.292-.496 1.334-1.449 1.584-2.07 1.126-2.691-3.96-6.501-4.585-5.88-2.042 2.029-10.462 8.986-12.797 15.197-1.209 3.188-1.875 10.807 4.377 20.786 0 0 1.751-.704 4.544-.787" fill="#b7835f"/><path d="M33.635 244.104s3.168.248 3.668.911 1.751 2.195 1.751 2.195-1.251.372-2.626-1.118l-1.418.289c0-.041-2.001-1.159-1.375-2.277z" fill="#b7835f"/><path d="M43.723 208.826c1.543 1.201 1.418 6.17-.208 7.247-2.001 1.366-9.046 8.736-9.046 8.736-5.21-.704-6.419-4.182-6.711-5.921-.083-.621.125-1.201.542-1.656 1.543-1.491 5.669-5.3 8.754-7.412 6.127-4.099 6.669-.994 6.669-.994z" fill="#fff"/><path d="m89.533 208.284 2.793-1.159s.125.745-.958 1.449l-1.043.579-1.125 1.491 2.084-1.449s2.876-.29 2.71.58l-.459 1.614s-.125.373-.458.497c-.334.166-1.042.166-1.042.166l-1.418 1.118c.5 1.283-3.835 3.768-3.835 3.768l-2.501-2.402 3.252-3.892.667-.704z" fill="#9e684d"/><path d="M83.822 214.746s1.751-2.981 2.71-3.312c.5-.207 2.292-.538 2.292-.538l2.293.165s-.584 1.16-2.251.828l-1.167 1.242s1.125 2.899-1.167 4.224z" fill="#b7835f"/><defs><linearGradient id="a" x1="1053.19" y1="628.425" x2="815.108" y2="-278.58" gradientUnits="userSpaceOnUse"><stop stop-color="#B6D3EF"/><stop offset=".26" stop-color="#D0E1F5"/><stop offset=".456" stop-color="#DFE9F8"/><stop offset="1" stop-color="#fff"/></linearGradient><linearGradient id="b" x1="1210.89" y1="303.571" x2="1176.49" y2="363.434" gradientUnits="userSpaceOnUse" gradientTransform="translate(-699 -67.665)"><stop stop-color="#11055B"/><stop offset=".794" stop-color="#11055B" stop-opacity="0"/></linearGradient><linearGradient id="c" x1="1223.85" y1="267.943" x2="1223.85" y2="302.824" gradientUnits="userSpaceOnUse" gradientTransform="translate(-699 -67.665)"><stop stop-color="#5333ED"/><stop offset="1" stop-color="#5333ED" stop-opacity="0"/></linearGradient><linearGradient id="d" x1="1112.73" y1="311.997" x2="1116.56" y2="315.703" gradientUnits="userSpaceOnUse" gradientTransform="translate(-699 -67.665)"><stop stop-color="#1B0C79"/><stop offset=".199" stop-color="#1D0D7D"/><stop offset=".416" stop-color="#23128B"/><stop offset=".642" stop-color="#2E19A0"/><stop offset=".872" stop-color="#3C23BF"/><stop offset="1" stop-color="#462AD3"/></linearGradient><linearGradient id="e" x1="1200.67" y1="272.261" x2="1135.77" y2="248.528" gradientUnits="userSpaceOnUse" gradientTransform="translate(-699 -67.665)"><stop stop-color="#371FB2"/><stop offset=".076" stop-color="#3C22BC"/><stop offset=".224" stop-color="#4227C9"/><stop offset=".416" stop-color="#4529D1"/><stop offset=".813" stop-color="#462AD3"/></linearGradient><linearGradient id="f" x1="1214.51" y1="203.128" x2="1218.16" y2="215.802" gradientUnits="userSpaceOnUse" gradientTransform="translate(-699 -67.665)"><stop stop-color="#1B0C79"/><stop offset="1" stop-color="#4026C7"/></linearGradient><linearGradient id="g" x1="1218.07" y1="201.245" x2="1223.99" y2="206.96" gradientUnits="userSpaceOnUse" gradientTransform="translate(-699 -67.665)"><stop stop-color="#1B0C79"/><stop offset=".001" stop-color="#1B0C79"/><stop offset=".068" stop-color="#281595"/><stop offset=".142" stop-color="#331DAC"/><stop offset=".229" stop-color="#3C23BD"/><stop offset=".334" stop-color="#4227CA"/><stop offset=".475" stop-color="#4529D1"/><stop offset=".813" stop-color="#462AD3"/></linearGradient><linearGradient id="h" x1="1161.93" y1="306.132" x2="1139.62" y2="344.956" gradientUnits="userSpaceOnUse" gradientTransform="translate(-699 -67.665)"><stop stop-color="#0F0446"/><stop offset="1" stop-color="#0F0446" stop-opacity="0"/></linearGradient><linearGradient id="i" x1="1150.5" y1="315.322" x2="1166.36" y2="315.322" gradientUnits="userSpaceOnUse" gradientTransform="translate(-699 -67.665)"><stop stop-color="#0C022F"/><stop offset=".25" stop-color="#0D0234" stop-opacity=".75"/><stop offset=".542" stop-color="#0E0342" stop-opacity=".458"/><stop offset=".853" stop-color="#110559" stop-opacity=".147"/><stop offset="1" stop-color="#120667" stop-opacity="0"/></linearGradient><linearGradient id="j" x1="1166.42" y1="305.71" x2="1158.34" y2="305.71" gradientUnits="userSpaceOnUse" gradientTransform="translate(-699 -67.665)"><stop stop-color="#0C022F"/><stop offset=".243" stop-color="#0D0235" stop-opacity=".757"/><stop offset=".579" stop-color="#0F0447" stop-opacity=".421"/><stop offset=".968" stop-color="#120664" stop-opacity=".033"/><stop offset="1" stop-color="#120667" stop-opacity="0"/></linearGradient><linearGradient id="k" x1="760.83" y1="301.04" x2="711.225" y2="307.138" gradientUnits="userSpaceOnUse" gradientTransform="translate(-699 -67.665)"><stop stop-color="#DFE9F8"/><stop offset="1" stop-color="#C6D6ED"/></linearGradient></defs></svg>