<svg xmlns="http://www.w3.org/2000/svg" xmlns:xlink="http://www.w3.org/1999/xlink" width="537" height="445" viewBox="0 0 537 445"><defs><style>.a{fill:none;}.b{fill:url(#a);}.c{fill:#de2589;}.d{fill:url(#b);}.e{fill:#1eb7e8;}.f{filter:url(#c);}</style><linearGradient id="a" x1="0.073" y1="0.042" x2="0.962" y2="0.935" gradientUnits="objectBoundingBox"><stop offset="0"/><stop offset="0.018" stop-color="#18040f"/><stop offset="0.052" stop-color="#410b28"/><stop offset="0.091" stop-color="#671140"/><stop offset="0.133" stop-color="#871754"/><stop offset="0.18" stop-color="#a31b64"/><stop offset="0.233" stop-color="#b91f72"/><stop offset="0.294" stop-color="#c9227c"/><stop offset="0.37" stop-color="#d52484"/><stop offset="0.477" stop-color="#dc2588"/><stop offset="0.773" stop-color="#de2589"/></linearGradient><linearGradient id="b" x1="-2.124" y1="-0.068" x2="-1.528" y2="1.074" gradientUnits="objectBoundingBox"><stop offset="0"/><stop offset="0.014" stop-color="#031116"/><stop offset="0.045" stop-color="#083441"/><stop offset="0.079" stop-color="#0e5369"/><stop offset="0.116" stop-color="#126e8c"/><stop offset="0.156" stop-color="#1685a9"/><stop offset="0.201" stop-color="#1997c0"/><stop offset="0.252" stop-color="#1ba6d2"/><stop offset="0.313" stop-color="#1db0df"/><stop offset="0.394" stop-color="#1eb5e6"/><stop offset="0.575" stop-color="#1eb7e8"/></linearGradient><filter id="c" x="279.509" y="73.01" width="222.452" height="201.614" filterUnits="userSpaceOnUse"><feOffset dy="3" input="SourceAlpha"/><feGaussianBlur stdDeviation="3" result="d"/><feFlood flood-opacity="0.161"/><feComposite operator="in" in2="d"/><feComposite in="SourceGraphic"/></filter></defs><g transform="translate(-133.024 -91.324)"><rect class="a" width="537" height="445" transform="translate(133.024 91.324)"/><g transform="translate(-8)"><path class="b" d="M373.69,381.42,231.85,292.68c-13.28-8.31-29.6-1.98-36.45,14.13l-5.37,12.62c-4.87,11.46-1.16,25.55,8.28,31.46L366.48,456.1c3.26,2.04,7.26.49,8.94-3.47l10.51-24.71C393.14,410.98,387.66,390.16,373.69,381.42Z"/><path class="c" d="M374.7,245.76,216.78,351.02c-9.41,6.27-21.23,2.1-26.4-9.31l-.78-1.72c-9.83-21.7-3.3-48.96,14.59-60.89L365.88,171.32c3.21-2.14,7.25-.72,9.02,3.18l11.04,24.37C393.51,215.59,388.48,236.58,374.7,245.76Z"/><path class="c" d="M218.41,349.94l-10.28,7.09-7.92-4.78,6.88-5.3Z"/></g><g transform="translate(19)"><path class="d" d="M418.31,381.42l141.84-88.74c13.28-8.31,29.6-1.98,36.45,14.13l5.37,12.62c4.87,11.46,1.16,25.55-8.28,31.46L425.52,456.1c-3.26,2.04-7.26.49-8.94-3.47l-10.51-24.71C398.86,410.98,404.34,390.16,418.31,381.42Z"/><g class="f" transform="matrix(1, 0, 0, 1, 114.02, 91.32)"><path class="e" d="M417.3,245.76,575.23,351.03c9.41,6.27,21.23,2.1,26.4-9.31l.78-1.72c9.83-21.7,3.3-48.96-14.59-60.89L426.11,171.33c-3.21-2.14-7.25-.72-9.02,3.18l-11.04,24.37C398.49,215.59,403.52,236.58,417.3,245.76Z" transform="translate(-114.02 -91.32)"/></g><path class="e" d="M573.59,349.94l10.28,7.09,7.92-4.78-6.88-5.3Z"/></g></g></svg>