<svg fill="none" xmlns="http://www.w3.org/2000/svg" viewBox="0 0 251 60"><g fill="#00aeef"><path d="M216.151 0c-13.075 0-23.716 10.587-23.716 23.596 0 13.015 10.641 23.597 23.716 23.597 13.082 0 23.723-10.582 23.723-23.597C239.874 10.587 229.233 0 216.151 0Zm18.507 10.43a33.299 33.299 0 0 1-3.818 2.2 24.469 24.469 0 0 0-2.832-4.412 21.92 21.92 0 0 0 2.763-1.967 22.719 22.719 0 0 1 3.887 4.179Zm-9.978-7.828a22.675 22.675 0 0 1 5.315 3.033 21.683 21.683 0 0 1-2.615 1.837 24.474 24.474 0 0 0-3.905-3.59 12 12 0 0 0 1.205-1.28Zm1.838 5.355a22.283 22.283 0 0 1-3.996 1.661 35.437 35.437 0 0 0-1.977-3.848 10.895 10.895 0 0 0 2.161-1.26 24 24 0 0 1 3.812 3.447Zm-2.805-5.714c-.322.379-.675.735-1.05 1.062a24.89 24.89 0 0 0-3.975-2.189c1.727.185 3.41.562 5.025 1.127Zm-1.859 1.688c-.57.4-1.179.74-1.822 1.008a36.214 36.214 0 0 0-2.286-3.167 23.832 23.832 0 0 1 4.108 2.159Zm-5.211-1.992a34.46 34.46 0 0 1 2.45 3.334 9.765 9.765 0 0 1-2.45.428V1.94Zm0 4.74a11.254 11.254 0 0 0 2.983-.55 32.717 32.717 0 0 1 1.946 3.754 21.71 21.71 0 0 1-4.929.677V6.679Zm-.989-4.701V5.7a9.739 9.739 0 0 1-2.416-.428 35.499 35.499 0 0 1 2.416-3.295Zm-3.349 2.965a9.661 9.661 0 0 1-1.819-1.012 23.287 23.287 0 0 1 4.091-2.15 34.633 34.633 0 0 0-2.272 3.162Zm1.371-3.835a25.07 25.07 0 0 0-4.007 2.193 10.95 10.95 0 0 1-1.05-1.067 22.435 22.435 0 0 1 5.057-1.126Zm16.248 40.498c-3.152-1.718-3.214-4.109-3.051-4.985.172-.893.788-.505 1.178-.505 2.074 0 4.258-.61 6.944-3.34 3.032-3.076 3.984-9.917-.675-14.37-5.02-4.808-10.358-3.967-13.8.355-.709.884-2.428 1.533-3.918 1.48-2.207-.082-.818 1.647-.818 2.006 0 .364-.332.613-.529.558-.749-.211-.449.892-.449 1.225a.513.513 0 0 1-.474.504c-.928 0-.672.834-.645 1.055.028.223-.053.612-.364.781-.295.166-.644.892-.644 1.451 0 1 .923 1.698 2.468 2.839 1.535 1.145 1.734 2.227 1.76 3.007.031.781.102 2.038.453 2.871.414 1.004.359 2.842-1.77 2.923-2.599.105-7.218 2.174-7.612 2.313-1.465.52-3.406.705-4.923.328a22.304 22.304 0 0 1-2.328-1.875c-.304-1.038.224-2.158.755-2.911.868.863 2.159.808 2.881.833.728.03 4.282-.527 4.789-.693.505-.17.729-.11 1.034 0 1.36.491 3.221.638 3.975-1.95.757-2.59-1.034-1.865-1.258-1.757-.225.113-.533.087-.418-.136.33-.66-.168-.591-.45-.615-.728-.073-1.682.697-1.987.978-.311.279-.62.248-.731.193-.963-.48-3.84.213-4.728-1.338.082-.416-.733-6.71-1.152-7.798a1.074 1.074 0 0 1 .113-1.027c.731-1.094 2.746.079 3.837.052 1.308-.032 1.518-.575 1.875-1.016.346-.425.6-.188.785-.307.239-.151.014-.458.096-.624.087-.168.186-.086.407-.278.225-.2-.03-.613.082-.783.323-.485 1.205-.094.675-1.362-.288-.693.114-1.447.505-1.95.635-.814 3.083-4.239-1.233-7.8-4.12-3.393-8.29-3.116-10.978-.226-2.687 2.898-1.344 7.133-1.062 8.246.281 1.117-.526 2.128-1.454 2.565-.739.346-2.416 1.457-3.684 2.558.204-9.093 5.749-17.084 14.253-20.488.36.453.764.877 1.199 1.28-.947.686-3.013 2.526-3.013 2.526s.283.041.545.104c.183.047.567.16.567.16s1.821-1.544 2.677-2.154c.666.503 1.393.922 2.165 1.26-.417.702-1.454 2.637-1.454 2.637s.24.145.459.287c.211.141.345.266.345.266s1.133-2.12 1.562-2.829a10.99 10.99 0 0 0 2.945.544v3.888c-.555-.02-1.989-.078-2.569-.134l-.363-.038.202.3c.156.225.27.448.38.653l.04.079.095.013c.422.032 1.728.078 2.216.09v7.073h.99v-1.621a97.763 97.763 0 0 0 4.102-.293l.064-.006 1.277-1.125-.698.06a51.748 51.748 0 0 1-4.111.364l-.635.032v-4.484a23.19 23.19 0 0 0 5.321-.743c.474 1.168 1.375 3.999 1.375 3.999l.931-.287s-.9-2.813-1.373-3.983a22.784 22.784 0 0 0 4.261-1.799 23.368 23.368 0 0 1 2.806 4.331c-.701.329-1.976.777-1.972.777 1.021.11 1.797.353 1.797.353s.362-.155.594-.258c.093.203.268.616.268.616l1.273.561-.146-.35s-.423-1.004-.524-1.238a34.84 34.84 0 0 0 3.958-2.277 22.455 22.455 0 0 1 3.703 12.369c.002 7.341-3.529 13.873-8.989 18.01ZM190.287 6.271l-.369.328c-1.394 1.223-4.566 4.454-4.085 8.004.005.015.053.252.053.252l.158.703.443-.405c1.949-1.767 3.408-4.772 4.004-8.236l.168-.976-.372.33Zm-6.455 6.132-.159.427c-.223.592-.622 1.837-.838 3.492-.3 2.341-.232 5.655 1.816 8.133-.005-.003.225.294.225.294l.237.297.302-1.506c.338-2.657-.106-8.228-1.09-10.716l-.335-.849-.158.428Zm-2.357 9.582-.028.44c-.172 2.384-.05 8.269 4.74 11.391l.57.364-.025-.67c-.082-2.235-2.703-8.897-4.667-11.285l-.555-.677-.035.438Zm.824 10.533.083.402c.698 3.378 3.921 8.859 8.903 10.444l.68.223-.248-.669c-.925-2.529-5.725-8.421-8.808-10.363l-.696-.44.086.403ZM192.3 11.367l-.393.234c-3.705 2.254-5.442 4.98-5.31 8.341l.034.77.537-.445c2.008-1.653 4.515-5.87 5.255-8.263l.27-.873-.393.236Zm-2.182 7.366-.278.264c-.949.896-4.017 4.147-3.754 8.166.04.617.184 1.284.422 1.974l.216.64.395-.549c1.466-2.053 3.412-7.474 3.308-9.994l-.029-.765-.28.264Zm.16 6.974-.208.311c-1.549 2.285-2.337 4.633-2.289 6.795.043 1.6.555 3.131 1.525 4.554l.323.478.274-.508c.667-1.248 1.2-5.305 1.119-8.517-.028-1.133-.14-2.07-.33-2.71l-.208-.706-.206.303Zm1.799 7.462-.099.324c-.467 1.482-.684 2.934-.646 4.311.09 3.121 1.477 5.557 4.132 7.25l.448.284.099-.601c0-.015.035-.481.035-.481-.072-2.539-1.973-8.917-3.457-10.87l-.411-.54-.101.323Zm-5.226 9.895.19.318c1.997 3.325 5.384 7.622 11.72 6.52l.53-.089-.3-.444c-1.185-1.75-8.876-6.066-11.592-6.509l-.739-.12.191.323Zm9.369 8.45-.992.269.955.385c4.025 1.64 9.076 2.124 12.001 1.147 1.104-.371 1.77-.972 2.587-1.765 5.156.53 9.981 4.794 12.793 8.274l.152.176.218-.07c.316-.108.803-.481 1.008-.703l.196-.21-.178-.234c-2.933-3.82-7.526-6.187-7.733-6.28-4.132-2.01-11.433-3.57-21.007-.99Z"/><path d="m196.434 40.858.056.337c.604 3.775 2.146 8.728 8.554 8.181l.412-.036-.103-.397c-.436-1.716-6.306-6.704-8.355-8.106l-.615-.319.051.34Zm45.308-34.917.171.975c.598 3.465 2.057 6.47 4.005 8.237l.445.405.153-.703s.049-.237.05-.252c.49-3.549-2.688-6.78-4.075-8.004l-.374-.328-.375-.33Zm6.675 6.035-.339.849c-.984 2.488-1.429 8.059-1.091 10.716l.306 1.506.235-.298.227-.294c2.045-2.478 2.114-5.791 1.809-8.133a16.023 16.023 0 0 0-.833-3.491l-.159-.427-.155-.428Zm2.48 9.573-.556.677c-1.964 2.387-4.587 9.049-4.666 11.284l-.026.671.564-.364c4.789-3.122 4.916-9.008 4.745-11.391l-.033-.44-.028-.437Zm-.708 10.565-.695.441c-3.082 1.943-7.884 7.834-8.81 10.363l-.246.669.68-.223c4.976-1.585 8.205-7.066 8.901-10.444l.086-.402.084-.404ZM239.9 11.015l.256.876c.688 2.412 3.111 6.677 5.084 8.366l.534.455.045-.767c.2-3.36-1.482-6.121-5.141-8.441l-.392-.246-.386-.243Zm2.106 7.454-.03.765c-.102 2.52 1.839 7.941 3.307 9.994l.398.55.218-.641a7.79 7.79 0 0 0 .419-1.974c.267-4.018-2.806-7.27-3.754-8.166l-.279-.264-.279-.264Zm-.088 6.934-.206.706c-.19.64-.301 1.578-.33 2.71-.082 3.212.451 7.27 1.116 8.518l.272.507.328-.477c.97-1.423 1.479-2.955 1.522-4.554.052-2.163-.737-4.51-2.285-6.796l-.209-.31-.208-.304Zm-1.694 7.443-.408.54c-1.488 1.954-3.386 8.332-3.458 10.87 0 0 .037.466.04.481l.096.602s.449-.283.451-.283c2.651-1.694 4.038-4.13 4.129-7.25.038-1.378-.177-2.83-.647-4.313l-.103-.324-.1-.323Zm5.521 9.894-.741.12c-2.719.444-10.406 4.759-11.592 6.51l-.299.444.531.087c6.339 1.103 9.723-3.195 11.72-6.518l.19-.32.191-.324Zm-30.569 9.764c-.203.092-4.801 2.46-7.73 6.28l-.181.233.201.21c.204.223.691.595 1.01.703l.214.07.151-.175c2.808-3.48 7.636-7.744 12.79-8.274.818.793 1.484 1.392 2.589 1.765 2.928.978 7.974.494 12.004-1.147l.954-.384-.994-.27c-9.573-2.583-16.875-1.022-21.008.989Zm20.848-11.985-.612.319c-2.058 1.4-7.928 6.39-8.362 8.106l-.1.396.409.037c6.409.547 7.953-4.406 8.555-8.181l.056-.337.054-.34ZM74.088 2.32h8.01v7.264h-8.01V2.321Zm.637 15.516h6.737v35.398h-6.737V17.837Zm-50.835.034h6.733v35.395H24.03V48.05h-.139c-2.695 4.445-7.23 6.273-12.195 6.273C4.255 54.322 0 48.682 0 41.563V17.87h6.738v20.942c0 6.131 1.415 10.646 7.864 10.646 2.766 0 6.524-1.408 7.938-5.075 1.275-3.315 1.35-7.473 1.35-8.325V17.872Zm20.179 5.217h.141c2.267-4.445 7.234-6.274 10.775-6.274 2.482 0 13.467.632 13.467 11.985v24.467h-6.731V30.985c0-5.854-2.48-9.021-8.154-9.021 0 0-3.69-.212-6.52 2.607-.993.984-2.837 2.535-2.837 9.446v19.25h-6.735V17.871h6.593v5.216Zm65.588 6.134c-.353-4.413-2.46-7.49-7.254-7.49-6.4 0-8.869 5.524-8.869 13.799 0 8.264 2.468 13.8 8.869 13.8 4.432 0 7.18-2.865 7.53-7.917h6.697c-.57 7.917-6.478 12.748-14.299 12.748-11.336 0-15.84-7.98-15.84-18.355 0-10.309 5.206-18.918 16.411-18.918 7.468 0 13.095 4.697 13.436 12.332h-6.681v.001Zm17.031 7.566c-.497 6.166 2.041 12.544 8.869 12.544 5.212 0 7.815-2.026 8.586-7.154h7.053c-1.065 8-7.262 11.985-15.705 11.985-11.34 0-15.856-7.98-15.856-18.356 0-10.308 5.222-18.917 16.418-18.917 10.56.218 15.557 6.864 15.557 16.611v3.286h-24.922Zm17.888-4.619c.138-5.885-2.544-10.438-9.019-10.438-5.57 0-8.869 4.677-8.869 10.438h17.888Zm14.612 20.942V22.568h-6.081v-4.637h6.081v-7.554c.219-7.71 6.059-9.741 11.06-9.741 1.616 0 3.173.417 4.799.699v5.529c-1.141-.058-2.26-.21-3.394-.21-3.794 0-5.985.99-5.775 4.838v6.44h8.175v4.637h-8.175v30.542h-6.69Z"/></g></svg>
